# xmcd CD database file
#
# Track frame offsets:
#	187
#	5717
#	26329
#	53257
#	82562
#	105464
#	134552
#	143204
#	164172
#	190292
#
# Disc length: 3178 seconds
#
# Revision: 3
# Processed by: cddbd v1.5.2PL0 Copyright (c) Steve Scherf et al.
# Submitted via: CDex 1.51
#
DISCID=790c680a
DTITLE=Conception - The Last Sunset
DYEAR=1991
DGENRE=Heavy Metal
TTITLE0=Prevision
TTITLE1=Building A Force
TTITLE2=War Of Hate
TTITLE3=Bowed Down With Sorrow
TTITLE4=Fairy's Dance
TTITLE5=Another World
TTITLE6=Elegy
TTITLE7=The Last Sunset
TTITLE8=Live To Survive
TTITLE9=Among The Gods
EXTD=YEAR: 1991
EXTT0=
EXTT1=
EXTT2=
EXTT3=
EXTT4=
EXTT5=
EXTT6=
EXTT7=
EXTT8=
EXTT9=
PLAYORDER=
